<svg width="68" height="68" viewBox="0 0 68 68" fill="none" xmlns="http://www.w3.org/2000/svg">
<path d="M18.8572 14.0204H8.00007C4.13407 14.0204 1.00007 17.1544 1.00007 21.0204V31.0126C1.00007 31.5466 1.43302 31.9796 1.9671 31.9796H5.81125C10.0971 31.9796 13.5715 35.454 13.5715 39.7398C13.5714 44.0257 10.0971 47.5 5.81126 47.5H1.96704C1.43296 47.5 1 47.933 1 48.467L1.00004 60C1.00006 63.866 4.13406 67 8.00005 67H18.8902C19.4243 67 19.8572 66.567 19.8572 66.033V62.0612C19.8572 57.8458 23.2745 54.4286 27.4899 54.4286C31.7053 54.4286 35.1225 57.8458 35.1225 62.0612V66.033C35.1225 66.567 35.5555 67 36.0895 67H46.9797C50.8457 67 53.9797 63.866 53.9797 60V48.5C53.9797 47.9477 54.4274 47.5 54.9797 47.5H59.2399C63.5257 47.5 67.0001 44.0256 67.0001 39.7398C67.0001 35.454 63.5257 31.9796 59.2398 31.9796H54.9797C54.4274 31.9796 53.9797 31.5319 53.9797 30.9796V21.0204C53.9797 17.1544 50.8457 14.0204 46.9797 14.0204H36.1225C35.5702 14.0204 35.1225 13.5727 35.1225 13.0204V8.63265C35.1225 4.41726 31.7053 1 27.4899 1C23.2745 1 19.8572 4.41725 19.8572 8.63265V13.0204C19.8572 13.5727 19.4095 14.0204 18.8572 14.0204Z" stroke="black" stroke-linecap="round"/>
<path d="M20 29L23 30.5458V46.4542L20 48V29Z" fill="#37DB8C"/>
<path d="M37 48L34 46.4542V30.5458L37 29V48Z" fill="#37DB8C"/>
<path d="M25 46L28 44.5008V38.4992L25 37V46Z" fill="#37DB8C"/>
<path d="M33 32L29 33.3358V38.6642L33 40V32Z" fill="#37DB8C"/>
</svg>
